<?xml version="1.0" encoding="UTF-8"?>
<svg id="Layer_2" data-name="Layer 2" xmlns="http://www.w3.org/2000/svg" viewBox="0 0 671.64 426.67">
  <defs>
    <style>
      .cls-1 {
        fill: #dcf0ef;
        fill-rule: evenodd;
      }
    </style>
  </defs>
  <g id="Layer_1-2" data-name="Layer 1">
    <g>
      <path class="cls-1" d="m671.64,0c-62.27,79.58-220.94,50.74-324.49,122.75.36.42.72.84,1.08,1.27,59.01,70.16,74.58,171.98,41.79,254.04,84.65-55.37,179.02-39.41,236.55-88.86C624.02,288.79,669.09-.4,671.64,0Z"/>
      <path class="cls-1" d="m0,0c71.38,84.86,241.9,51.74,335.82,135.23,53.99,75.15,63.6,186.43,19.91,265.23-3.8,6.85-8.46,13.18-13.69,19.01-2.09,2.33-4.16,4.73-6.23,7.2-95.34-114.27-220.5-77.1-290.74-137.48C47.44,288.82,2.37-.37,0,0Z"/>
    </g>
  </g>
</svg>